<svg width="310" height="310" xmlns="http://www.w3.org/2000/svg">
<foreignObject x="0" y="0" width="310" height="310">
<div xmlns="http://www.w3.org/1999/xhtml" style="width:310px;height:310px;background:#fff;border-radius:12px;box-shadow:0 2px 8px rgba(0,0,0,0.12);font-family:'PingFang SC','Helvetica Neue','Segoe UI','Microsoft YaHei',sans-serif;padding:12px;box-sizing:border-box">

<div style="font-size:14px;font-weight:600;color:#333;margin-bottom:2px">听歌 DNA</div>
<div style="font-size:11px;color:#888;margin-bottom:8px">Listening DNA</div>

<svg width="282" height="240" viewBox="0 0 282 240" style="display:block;margin:0 auto" xmlns="http://www.w3.org/2000/svg">

<polygon points="141,87 174,120 141,153 108,120" fill="none" stroke="#eee" stroke-width="1"/>
<polygon points="141,54 207,120 141,186 75,120" fill="none" stroke="#eee" stroke-width="1"/>
<polygon points="141,20 241,120 141,220 41,120" fill="none" stroke="#ddd" stroke-width="1"/>
<line x1="141" y1="120" x2="141" y2="20" stroke="#ddd" stroke-width="1"/>
<line x1="141" y1="120" x2="241" y2="120" stroke="#ddd" stroke-width="1"/>
<line x1="141" y1="120" x2="141" y2="220" stroke="#ddd" stroke-width="1"/>
<line x1="141" y1="120" x2="41" y2="120" stroke="#ddd" stroke-width="1"/>
<polygon points="141.0,107.0 226.0,120.0 141.0,126.0 131.0,120.0" fill="rgba(186,4,0,0.15)" stroke="#BA0400" stroke-width="2"/>
<text x="141" y="12" text-anchor="middle" font-size="11" fill="#555" font-family="'PingFang SC',sans-serif">忠诚 13</text>
<text x="248" y="124" text-anchor="start" font-size="11" fill="#555" font-family="'PingFang SC',sans-serif">多样 85</text>
<text x="141" y="238" text-anchor="middle" font-size="11" fill="#555" font-family="'PingFang SC',sans-serif">专注 6</text>
<text x="34" y="124" text-anchor="end" font-size="11" fill="#555" font-family="'PingFang SC',sans-serif">深度 10</text>
</svg>

</div>
</foreignObject>
</svg>
